<svg width="22" height="27" viewBox="0 0 22 27" fill="none" xmlns="http://www.w3.org/2000/svg">
<g clip-path="url(#clip0_453_236)">
<path fill-rule="evenodd" clip-rule="evenodd" d="M4.83333 2.62504C3.49865 2.62504 2.41667 3.70702 2.41667 5.04171V19.7834C2.41667 20.8184 2.41761 21.522 2.46204 22.0659C2.50532 22.5957 2.58378 22.8666 2.68007 23.0555C2.91176 23.5102 3.28147 23.88 3.73619 24.1116C3.92517 24.2079 4.19608 24.2864 4.72584 24.3296C5.2697 24.3741 5.9733 24.375 7.00833 24.375H14.7417C15.7767 24.375 16.4803 24.3741 17.0242 24.3296C17.5539 24.2864 17.8249 24.2079 18.0138 24.1116C18.4685 23.88 18.8383 23.5102 19.0699 23.0555C19.1662 22.8666 19.2446 22.5957 19.2879 22.0659C19.3324 21.522 19.3333 20.8184 19.3333 19.7834V14.7084C19.3333 12.039 17.1693 9.87504 14.5 9.87504H13.5938C11.4249 9.87504 9.66667 8.11683 9.66667 5.94796C9.66667 4.11276 8.17894 2.62504 6.34375 2.62504H4.83333ZM8.45833 0.208374C15.7991 0.208374 21.75 6.15926 21.75 13.5V19.8333C21.75 20.806 21.75 21.6087 21.6966 22.2626C21.6411 22.9418 21.522 23.5662 21.2232 24.1527C20.7598 25.0621 20.0204 25.8015 19.111 26.2649C18.5245 26.5637 17.9001 26.6828 17.2209 26.7383C16.567 26.7917 15.7643 26.7917 14.7916 26.7917H6.95841C5.98575 26.7917 5.18298 26.7917 4.52904 26.7383C3.84985 26.6828 3.22549 26.5637 2.63905 26.2649C1.7296 25.8015 0.990193 25.0621 0.526798 24.1527C0.227989 23.5662 0.108895 22.9418 0.0533965 22.2626C-2.38903e-05 21.6087 -1.17199e-05 20.806 3.63476e-07 19.8333V5.04171C3.63476e-07 2.37233 2.16396 0.208374 4.83333 0.208374H8.45833ZM18.0614 8.39197C16.6589 5.76074 14.2066 3.77385 11.2636 2.99031C11.784 3.85407 12.0833 4.86605 12.0833 5.94796C12.0833 6.78214 12.7595 7.45837 13.5938 7.45837H14.5C15.7944 7.45837 17.0096 7.79759 18.0614 8.39197Z" fill="#7C99A2"/>
</g>
<defs>
<clipPath id="clip0_453_236">
<rect width="22" height="27" fill="white"/>
</clipPath>
</defs>
</svg>
