<svg width="115" height="116" viewBox="0 0 115 116" fill="none" xmlns="http://www.w3.org/2000/svg">
<g clip-path="url(#clip0_407_438)">
<path fill-rule="evenodd" clip-rule="evenodd" d="M39.5278 28.2245C38.3296 26.9928 36.6173 26.0363 33.5761 26.0388C32.5615 26.0395 31.1014 26.4679 29.1312 28.1263C27.1409 29.8017 24.9957 32.4416 22.8205 36.0517C18.475 43.2641 14.6446 53.2754 11.7679 63.8633C8.90213 74.4107 7.09116 85.1271 6.5984 93.574C6.35073 97.8197 6.45041 101.266 6.8249 103.736C7.01195 104.969 7.24148 105.779 7.43059 106.25C7.45 106.299 7.46776 106.341 7.48363 106.376C10.5438 108.701 15.7663 109.627 22.2519 108.364C28.8118 107.086 35.2422 103.799 39.313 99.7326C40.7257 98.3214 41.9892 95.993 42.9318 92.5221C43.8631 89.0911 44.3604 84.9951 44.5692 80.5314C44.777 76.0918 44.6922 71.5025 44.5459 67.1193C44.5057 65.917 44.4602 64.7109 44.4149 63.5226C44.3005 60.5049 44.1905 57.6043 44.1883 55.1818C44.1876 54.3598 44.195 53.4889 44.2026 52.5805C44.2469 47.3297 44.3021 40.8196 42.8792 35.163C42.0664 31.9319 40.9106 29.6455 39.5278 28.2245ZM50.5792 52.8008C50.6904 41.553 50.9072 19.6495 33.5707 19.6638C9.82205 19.6833 -7.07365 102.593 3.11144 111.043C13.2966 119.493 33.6485 114.402 43.8182 104.243C52.0289 96.0411 51.3021 76.8922 50.7807 63.1461C50.6681 60.1843 50.5652 57.4733 50.5633 55.1767C50.563 54.4563 50.5706 53.6598 50.5792 52.8008Z" fill="#7C99A2"/>
<path fill-rule="evenodd" clip-rule="evenodd" d="M75.2823 28.1947C76.4786 26.9612 78.1893 26.0021 81.2305 25.9995C82.2451 25.9986 83.7059 26.4244 85.6786 28.0797C87.6718 29.7518 89.8211 32.3882 92.0023 35.9949C96.3596 43.1999 100.207 53.2048 103.101 63.7883C105.984 74.3309 107.812 85.0444 108.319 93.4904C108.573 97.7358 108.479 101.182 108.109 103.652C107.924 104.886 107.696 105.697 107.507 106.168C107.488 106.216 107.47 106.259 107.455 106.294C104.398 108.623 99.1774 109.559 92.6896 108.306C86.1275 107.039 79.6919 103.762 75.6144 99.7025C74.1995 98.2936 72.9318 95.9674 71.9839 92.4978C71.0467 89.0687 70.5428 84.9734 70.3267 80.5099C70.1115 76.0707 70.189 71.4813 70.328 67.0979C70.3662 65.8955 70.4099 64.6891 70.4532 63.5011C70.5626 60.4832 70.6681 57.5822 70.6658 55.1597C70.6652 54.3377 70.6566 53.4672 70.6474 52.5587C70.5944 47.308 70.5288 40.7978 71.9424 35.139C72.7498 31.9066 73.9021 29.6183 75.2823 28.1947ZM64.2714 52.7895C64.1417 41.5418 63.8889 19.6385 81.2254 19.6245C104.974 19.6051 122.006 102.487 111.834 110.954C101.663 119.421 81.3028 114.362 71.1166 104.22C62.8925 96.0318 63.5877 76.8819 64.0868 63.1352C64.1943 60.173 64.2928 57.4617 64.2908 55.1651C64.2905 54.4451 64.2813 53.6482 64.2714 52.7895Z" fill="#7C99A2"/>
<path d="M89.2915 41.9304C89.2944 45.451 86.4425 48.3077 82.9216 48.3105C79.401 48.3134 76.5444 45.4616 76.5415 41.9406C76.5386 38.42 79.3905 35.5634 82.9114 35.5605C86.432 35.5577 89.2886 38.4095 89.2915 41.9304Z" fill="#7C99A2"/>
<path d="M105.273 96.1045C105.276 99.6254 102.424 102.482 98.9039 102.485C95.3829 102.487 92.5263 99.6356 92.5234 96.115C92.5206 92.5941 95.3724 89.7375 98.8933 89.7346C102.414 89.7318 105.271 92.5836 105.273 96.1045Z" fill="#7C99A2"/>
<path d="M89.3306 89.7429C89.3334 93.2635 86.4816 96.1202 82.961 96.123C79.4401 96.1259 76.5834 93.2741 76.5806 89.7532C76.5777 86.2326 79.4296 83.3759 82.9505 83.373C86.4714 83.3702 89.3277 86.222 89.3306 89.7429Z" fill="#7C99A2"/>
<path d="M102.067 73.7952C102.07 77.3161 99.2184 80.1724 95.6975 80.1753C92.1769 80.1782 89.3203 77.3263 89.3174 73.8057C89.3145 70.2848 92.1664 67.4282 95.687 67.4253C99.2079 67.4224 102.065 70.2743 102.067 73.7952Z" fill="#7C99A2"/>
<path d="M89.3071 61.0554C89.31 64.576 86.4581 67.4327 82.9372 67.4355C79.4166 67.4384 76.56 64.5866 76.5571 61.0656C76.5543 57.545 79.4061 54.6884 82.927 54.6855C86.4476 54.6827 89.3043 57.5345 89.3071 61.0554Z" fill="#7C99A2"/>
<path d="M25.5415 41.9831C25.5444 45.504 28.401 48.3559 31.9216 48.353C35.4425 48.3502 38.2944 45.4935 38.2915 41.9726C38.2886 38.452 35.432 35.6002 31.9114 35.603C28.3905 35.6059 25.5386 38.4622 25.5415 41.9831Z" fill="#7C99A2"/>
<path d="M9.64844 96.1839C9.65134 99.7045 12.5079 102.556 16.0288 102.553C19.5494 102.551 22.4012 99.6943 22.3984 96.1734C22.3955 92.6524 19.5392 89.8006 16.0183 89.8035C12.4974 89.8063 9.64557 92.663 9.64844 96.1839Z" fill="#7C99A2"/>
<path d="M25.5806 89.7956C25.5834 93.3165 28.4401 96.1684 31.961 96.1655C35.4816 96.1627 38.3334 93.306 38.3306 89.7851C38.3277 86.2645 35.4714 83.4127 31.9505 83.4155C28.4296 83.4184 25.5777 86.2747 25.5806 89.7956Z" fill="#7C99A2"/>
<path d="M12.8174 73.8681C12.8203 77.3891 15.6769 80.2409 19.1975 80.238C22.7184 80.2349 25.5703 77.3785 25.5674 73.8576C25.5645 70.3367 22.7079 67.4849 19.187 67.488C15.6664 67.4909 12.8145 70.3472 12.8174 73.8681Z" fill="#7C99A2"/>
<path d="M25.5571 61.1081C25.56 64.629 28.4166 67.4809 31.9372 67.478C35.4581 67.4752 38.31 64.6185 38.3071 61.0976C38.3043 57.577 35.4476 54.7252 31.927 54.728C28.4061 54.7309 25.5543 57.5872 25.5571 61.1081Z" fill="#7C99A2"/>
<path fill-rule="evenodd" clip-rule="evenodd" d="M54.1947 0.522445C54.1947 0.522445 54.1947 0.522031 57.3822 0.519417C60.5697 0.516835 60.5697 0.517218 60.5697 0.517218L60.6077 46.7355C60.6131 53.4366 57.6328 57.2817 54.2553 59.2557C52.6705 60.182 51.1134 60.6321 49.9716 60.8552C49.3947 60.9677 48.9051 61.026 48.5449 61.0563C48.3642 61.0716 48.2144 61.0799 48.1006 61.0844C48.0435 61.0866 47.9954 61.0879 47.9568 61.0888L47.9058 61.0895L47.8857 61.0898H47.8771H47.873C47.873 61.0898 47.8692 61.0898 47.8666 57.9023C47.8641 54.7148 47.8605 54.7148 47.8605 54.7148H47.8574H47.8513H47.8414L47.8315 54.7151C47.8315 54.7151 47.8366 54.7148 47.8475 54.7145C47.8739 54.7135 47.9294 54.7106 48.0104 54.704C48.1729 54.6902 48.4305 54.6606 48.7499 54.5984C49.4007 54.4713 50.2336 54.222 51.0385 53.7519C52.4397 52.933 54.2362 51.1961 54.2327 46.7406L54.1947 0.522445Z" fill="#7C99A2"/>
<path fill-rule="evenodd" clip-rule="evenodd" d="M60.5703 0.517467C60.5703 0.517467 60.5703 0.517053 57.3828 0.519666C54.1953 0.52228 54.1953 0.522694 54.1953 0.522694L54.2332 46.741C54.2387 53.4421 57.225 57.2824 60.606 59.2507C62.1924 60.1744 63.7498 60.6219 64.8922 60.8432C65.4692 60.9547 65.9591 61.0124 66.3193 61.0421C66.5 61.057 66.6498 61.065 66.7636 61.0695C66.8207 61.0717 66.8688 61.0727 66.9074 61.0736L66.9584 61.0743H66.9785H66.9871H66.9912C66.9912 61.0743 66.9947 61.0743 66.9922 57.8868C66.9896 54.6993 66.9931 54.6993 66.9931 54.6993H66.9966H67.0027H67.0122L67.0221 54.6996C67.0221 54.6996 67.017 54.6993 67.0062 54.6989C66.9801 54.698 66.9243 54.6954 66.8433 54.6887C66.6808 54.6753 66.4232 54.646 66.1038 54.5842C65.4526 54.4583 64.6191 54.2106 63.8136 53.7417C62.4111 52.9248 60.6117 51.1911 60.6082 46.7359L60.5703 0.517467Z" fill="#7C99A2"/>
</g>
<defs>
<clipPath id="clip0_407_438">
<rect width="115" height="116" fill="white"/>
</clipPath>
</defs>
</svg>
