<svg width="104" height="104" viewBox="0 0 104 104" fill="none" xmlns="http://www.w3.org/2000/svg">
<g clip-path="url(#clip0_407_484)">
<path fill-rule="evenodd" clip-rule="evenodd" d="M74.6005 20.215C67.0884 14.8721 57.9265 12.3628 48.7403 13.1324C39.5541 13.902 30.9375 17.9007 24.4191 24.4191C17.9007 30.9375 13.902 39.5541 13.1324 48.7403C12.3628 57.9265 14.8721 67.0884 20.215 74.6005L74.6005 20.215ZM83.7915 29.3995L29.3995 83.7915C36.9116 89.1344 46.0735 91.6437 55.2597 90.8741C64.4459 90.1045 73.0625 86.1058 79.5809 79.5874C86.0993 73.069 90.098 64.4524 90.8676 55.2662C91.6372 46.08 89.1279 36.9181 83.785 29.406L83.7915 29.3995ZM52 0C65.7913 0 79.0177 5.47856 88.7696 15.2304C98.5214 24.9823 104 38.2087 104 52C104 65.7913 98.5214 79.0177 88.7696 88.7696C79.0177 98.5214 65.7913 104 52 104C38.2087 104 24.9823 98.5214 15.2304 88.7696C5.47856 79.0177 0 65.7913 0 52C0 38.2087 5.47856 24.9823 15.2304 15.2304C24.9823 5.47856 38.2087 0 52 0Z" fill="#7C99A2"/>
</g>
<defs>
<clipPath id="clip0_407_484">
<rect width="104" height="104" fill="white"/>
</clipPath>
</defs>
</svg>
