<svg width="91" height="111" viewBox="0 0 91 111" fill="none" xmlns="http://www.w3.org/2000/svg">
<g clip-path="url(#clip0_407_474)">
<path fill-rule="evenodd" clip-rule="evenodd" d="M47.7239 0.878553C46.3241 0.17655 44.6761 0.17655 43.2764 0.878553L3.49539 20.8274C1.81072 21.6721 0.746582 23.3991 0.746582 25.2881V55.2113C0.746582 68.4882 5.02571 79.6052 12.6955 88.7058C20.2853 97.7112 31.0035 104.524 43.6175 109.699C44.8238 110.194 46.1764 110.194 47.3827 109.699C59.9968 104.524 70.7147 97.7112 78.3049 88.7058C85.9747 79.6052 90.2536 68.4882 90.2536 55.2113V25.2881C90.2536 23.3991 89.1895 21.6721 87.5048 20.8274L47.7239 0.878553ZM10.6918 55.2113V28.3703L45.5001 10.9151L80.3084 28.3703V55.2113C80.3084 66.1457 76.8524 74.978 70.7093 82.2668C64.8242 89.2499 56.3011 95.0106 45.5001 99.6752C34.6989 95.0106 26.1761 89.2499 20.2909 82.2668C14.1479 74.978 10.6918 66.1457 10.6918 55.2113ZM69.1558 43.5075C70.9494 41.422 70.7182 38.2728 68.6387 36.4736C66.5596 34.6743 63.4194 34.9064 61.6253 36.9919L39.3475 62.8896L29.0916 52.8015C27.1309 50.8729 23.9826 50.9033 22.0596 52.8698C20.1365 54.8362 20.1671 57.9936 22.1277 59.9222L36.168 73.7332C37.1491 74.6983 38.4842 75.2129 39.8567 75.1556C41.2296 75.0982 42.5175 74.4738 43.4151 73.4305L69.1558 43.5075Z" fill="#7C99A2"/>
</g>
<defs>
<clipPath id="clip0_407_474">
<rect width="91" height="111" fill="white"/>
</clipPath>
</defs>
</svg>
