<svg width="28" height="28" viewBox="0 0 28 28" fill="none" xmlns="http://www.w3.org/2000/svg">
<g clip-path="url(#clip0_453_218)">
<path fill-rule="evenodd" clip-rule="evenodd" d="M9.77131 6.87634C9.48939 6.58654 9.08649 6.36146 8.37091 6.36206C8.13219 6.36221 7.78861 6.46301 7.32504 6.85324C6.85674 7.24744 6.35199 7.86859 5.84019 8.71804C4.81771 10.4151 3.91644 12.7707 3.23957 15.2619C2.56527 17.7437 2.13915 20.2652 2.02321 22.2527C1.96494 23.2517 1.98839 24.0625 2.07651 24.6437C2.12052 24.9339 2.17452 25.1245 2.21902 25.2354C2.22359 25.2468 2.22777 25.2566 2.2315 25.265C2.95154 25.8119 4.18036 26.0299 5.70639 25.7327C7.24989 25.4321 8.76294 24.6585 9.72076 23.7018C10.0532 23.3697 10.3505 22.8219 10.5722 22.0052C10.7914 21.1979 10.9084 20.2341 10.9575 19.1838C11.0064 18.1392 10.9865 17.0594 10.952 16.0281C10.9426 15.7452 10.9319 15.4614 10.9212 15.1818C10.8943 14.4717 10.8684 13.7892 10.8679 13.2192C10.8677 13.0258 10.8695 12.8209 10.8713 12.6072C10.8817 11.3717 10.8947 9.83989 10.5599 8.50894C10.3686 7.74866 10.0967 7.21069 9.77131 6.87634ZM12.3716 12.659C12.3978 10.0125 12.4488 4.85869 8.36964 4.86206C2.78172 4.86664 -1.19374 24.3747 1.20275 26.3631C3.59926 28.3514 8.38794 27.1533 10.7808 24.763C12.7127 22.8332 12.5417 18.3276 12.419 15.0932C12.3926 14.3963 12.3683 13.7584 12.3679 13.218C12.3678 13.0485 12.3696 12.8611 12.3716 12.659Z" fill="#7C99A2"/>
<path fill-rule="evenodd" clip-rule="evenodd" d="M18.1843 6.86943C18.4658 6.57918 18.8683 6.35351 19.5839 6.35291C19.8226 6.35268 20.1664 6.45288 20.6305 6.84236C21.0995 7.23581 21.6052 7.85613 22.1185 8.70476C23.1437 10.4001 24.0489 12.7542 24.7298 15.2444C25.4082 17.725 25.8385 20.2458 25.9576 22.2331C26.0176 23.232 25.9954 24.0429 25.9083 24.6242C25.8647 24.9145 25.811 25.1052 25.7667 25.2162C25.7622 25.2275 25.758 25.2374 25.7543 25.2458C25.0351 25.7938 23.8067 26.0139 22.2802 25.7192C20.7361 25.4211 19.2219 24.65 18.2625 23.6948C17.9296 23.3633 17.6313 22.8159 17.4082 21.9996C17.1877 21.1927 17.0692 20.2291 17.0183 19.1789C16.9677 18.1344 16.9859 17.0545 17.0186 16.0231C17.0276 15.7402 17.0379 15.4563 17.0481 15.1768C17.0738 14.4667 17.0986 13.7841 17.0981 13.2141C17.098 13.0207 17.0959 12.8159 17.0938 12.6021C17.0813 11.3667 17.0659 9.83486 17.3985 8.50338C17.5885 7.74281 17.8596 7.20438 18.1843 6.86943ZM15.5935 12.6564C15.563 10.0099 15.5035 4.85621 19.5827 4.85291C25.1707 4.84833 29.1781 24.3499 26.7848 26.3421C24.3916 28.3344 19.6009 27.1442 17.2042 24.7578C15.2691 22.8311 15.4327 18.3252 15.5501 15.0907C15.5754 14.3937 15.5986 13.7558 15.5981 13.2154C15.598 13.046 15.5959 12.8585 15.5935 12.6564Z" fill="#7C99A2"/>
<path d="M21.4805 10.1012C21.4811 10.9296 20.8101 11.6017 19.9817 11.6024C19.1533 11.6031 18.4811 10.9321 18.4805 10.1036C18.4798 9.27524 19.1508 8.60309 19.9793 8.60242C20.8076 8.60174 21.4798 9.27277 21.4805 10.1012Z" fill="#7C99A2"/>
<path d="M25.2407 22.8482C25.2414 23.6766 24.5704 24.3487 23.742 24.3494C22.9135 24.35 22.2414 23.679 22.2407 22.8506C22.24 22.0222 22.9111 21.35 23.7395 21.3494C24.568 21.3487 25.24 22.0197 25.2407 22.8482Z" fill="#7C99A2"/>
<path d="M21.4897 21.3512C21.4904 22.1796 20.8194 22.8517 19.991 22.8524C19.1626 22.8531 18.4904 22.1821 18.4897 21.3536C18.4891 20.5252 19.1601 19.8531 19.9885 19.8524C20.817 19.8517 21.4891 20.5228 21.4897 21.3512Z" fill="#7C99A2"/>
<path d="M24.4863 17.5989C24.487 18.4273 23.816 19.0994 22.9875 19.1001C22.1592 19.1008 21.487 18.4297 21.4863 17.6014C21.4857 16.7729 22.1567 16.1008 22.9851 16.1001C23.8135 16.0994 24.4857 16.7704 24.4863 17.5989Z" fill="#7C99A2"/>
<path d="M21.4839 14.6012C21.4846 15.4296 20.8135 16.1017 19.9851 16.1024C19.1567 16.1031 18.4846 15.4321 18.4839 14.6036C18.4832 13.7752 19.1542 13.1031 19.9827 13.1024C20.8111 13.1017 21.4832 13.7728 21.4839 14.6012Z" fill="#7C99A2"/>
<path d="M6.48047 10.1136C6.48114 10.9421 7.15329 11.6131 7.98167 11.6124C8.81012 11.6118 9.48114 10.9396 9.48047 10.1112C9.47979 9.28278 8.80764 8.61175 7.97927 8.61243C7.15082 8.6131 6.47979 9.28518 6.48047 10.1136Z" fill="#7C99A2"/>
<path d="M2.74072 22.8668C2.74141 23.6951 3.41353 24.3662 4.24198 24.3655C5.07036 24.3648 5.74138 23.6927 5.74071 22.8643C5.74003 22.0358 5.06796 21.3648 4.23951 21.3655C3.41107 21.3662 2.74005 22.0383 2.74072 22.8668Z" fill="#7C99A2"/>
<path d="M6.48975 21.3636C6.49042 22.1921 7.16257 22.8631 7.99102 22.8624C8.8194 22.8618 9.49042 22.1896 9.48975 21.3612C9.48907 20.5328 8.817 19.8618 7.98855 19.8624C7.1601 19.8631 6.48907 20.5352 6.48975 21.3636Z" fill="#7C99A2"/>
<path d="M3.48633 17.6161C3.487 18.4445 4.15916 19.1155 4.98754 19.1149C5.81599 19.1141 6.48701 18.442 6.48634 17.6136C6.48566 16.7851 5.81351 16.1141 4.98506 16.1149C4.15669 16.1155 3.48565 16.7876 3.48633 17.6161Z" fill="#7C99A2"/>
<path d="M6.48389 14.6136C6.48456 15.4421 7.15671 16.1131 7.98509 16.1124C8.81354 16.1118 9.48456 15.4396 9.48389 14.6112C9.48321 13.7828 8.81106 13.1118 7.98269 13.1124C7.15424 13.1131 6.48321 13.7852 6.48389 14.6136Z" fill="#7C99A2"/>
<path fill-rule="evenodd" clip-rule="evenodd" d="M13.2223 0.358194C13.2223 0.358194 13.2223 0.358096 13.9723 0.357481C14.7223 0.356874 14.7223 0.356964 14.7223 0.356964L14.7312 11.2319C14.7325 12.8086 14.0313 13.7133 13.2366 14.1778C12.8637 14.3957 12.4973 14.5016 12.2286 14.5541C12.0929 14.5806 11.9777 14.5943 11.8929 14.6015C11.8504 14.6051 11.8152 14.607 11.7884 14.6081C11.775 14.6086 11.7636 14.6089 11.7546 14.6091L11.7426 14.6093L11.7378 14.6093H11.7358H11.7348C11.7348 14.6093 11.7339 14.6093 11.7333 13.8593C11.7327 13.1093 11.7319 13.1093 11.7319 13.1093H11.7312H11.7297H11.7274L11.7251 13.1094C11.7251 13.1094 11.7263 13.1093 11.7288 13.1093C11.7351 13.109 11.7481 13.1084 11.7672 13.1068C11.8054 13.1036 11.866 13.0966 11.9412 13.082C12.0943 13.052 12.2903 12.9934 12.4797 12.8828C12.8094 12.6901 13.2321 12.2814 13.2312 11.2331L13.2223 0.358194Z" fill="#7C99A2"/>
<path fill-rule="evenodd" clip-rule="evenodd" d="M14.7222 0.357087C14.7222 0.357087 14.7222 0.356989 13.9722 0.357604C13.2222 0.358219 13.2222 0.358317 13.2222 0.358317L13.2311 11.2332C13.2324 12.8099 13.935 13.7135 14.7306 14.1767C15.1038 14.394 15.4703 14.4993 15.7391 14.5514C15.8748 14.5776 15.9901 14.5912 16.0749 14.5982C16.1174 14.6017 16.1526 14.6036 16.1794 14.6046C16.1928 14.6051 16.2042 14.6054 16.2132 14.6056L16.2252 14.6057H16.23H16.232H16.233C16.233 14.6057 16.2338 14.6057 16.2332 13.8557C16.2326 13.1057 16.2334 13.1057 16.2334 13.1057H16.2342H16.2357H16.2379L16.2402 13.1058C16.2402 13.1058 16.239 13.1057 16.2365 13.1057C16.2303 13.1054 16.2172 13.1048 16.1982 13.1033C16.1599 13.1001 16.0993 13.0932 16.0242 13.0787C15.8709 13.049 15.6748 12.9908 15.4853 12.8804C15.1553 12.6882 14.7319 12.2803 14.7311 11.232L14.7222 0.357087Z" fill="#7C99A2"/>
</g>
<defs>
<clipPath id="clip0_453_218">
<rect width="28" height="28" fill="white"/>
</clipPath>
</defs>
</svg>
