<svg width="28" height="27" viewBox="0 0 28 27" fill="none" xmlns="http://www.w3.org/2000/svg">
<path d="M24.5685 9.15848L24.098 8.89676C24.0251 8.85611 23.9891 8.83572 23.9538 8.81459C23.6029 8.60443 23.3073 8.31408 23.0915 7.9667C23.0698 7.93174 23.0494 7.89509 23.0075 7.82265C22.9657 7.75028 22.9445 7.71362 22.925 7.67733C22.7315 7.31592 22.6268 6.91317 22.6205 6.50324C22.6199 6.46203 22.62 6.41993 22.6214 6.33621L22.6307 5.78989C22.6453 4.91564 22.6528 4.47717 22.5298 4.08365C22.4208 3.73411 22.2382 3.41217 21.9944 3.13895C21.7188 2.83011 21.3373 2.60978 20.5736 2.16968L19.9392 1.80411C19.1776 1.36524 18.7967 1.14573 18.3923 1.06205C18.0347 0.988015 17.6655 0.991445 17.3091 1.07145C16.9067 1.16177 16.5306 1.38699 15.7788 1.83721L15.7744 1.83925L15.3199 2.11142C15.2481 2.15445 15.2117 2.17614 15.1756 2.19617C14.8181 2.39493 14.4191 2.50483 14.0102 2.51796C13.9691 2.51929 13.9271 2.51929 13.8433 2.51929C13.7601 2.51929 13.7163 2.51929 13.6752 2.51796C13.2655 2.50478 12.8656 2.39428 12.5075 2.1947C12.4714 2.17458 12.4357 2.15272 12.3638 2.10948L11.9063 1.83485C11.1493 1.38038 10.7702 1.1528 10.3657 1.06205C10.0078 0.981759 9.63741 0.979537 9.27839 1.05452C8.87302 1.13919 8.492 1.36034 7.72995 1.80261L7.72656 1.80411L7.10008 2.16772L7.09314 2.17196C6.33796 2.61027 5.95946 2.82994 5.6862 3.13752C5.4437 3.41046 5.26245 3.7319 5.15396 4.08052C5.03132 4.47456 5.03786 4.91398 5.05264 5.79236L5.06182 6.33791C5.06321 6.42051 5.06563 6.46157 5.06502 6.5022C5.05893 6.91296 4.95286 7.31654 4.75872 7.67858C4.73953 7.71439 4.71884 7.75019 4.67753 7.82171C4.63619 7.89329 4.61616 7.92888 4.59473 7.96342C4.37797 8.31265 4.08093 8.6047 3.72789 8.81521C3.69297 8.83603 3.65617 8.85606 3.58385 8.89613L3.11937 9.15354C2.34655 9.58181 1.96024 9.79613 1.67914 10.1011C1.43046 10.3709 1.2426 10.6909 1.12793 11.0396C0.998306 11.4336 0.998409 11.8754 1.00043 12.7589L1.00206 13.4811C1.00405 14.3586 1.00679 14.7972 1.1367 15.1885C1.25164 15.5348 1.43812 15.853 1.68541 16.1211C1.96493 16.4243 2.3474 16.6373 3.11434 17.0639L3.57469 17.3201C3.65304 17.3636 3.69247 17.3851 3.73025 17.4079C4.08008 17.6185 4.3748 17.9097 4.58971 18.257C4.61292 18.2945 4.63521 18.3334 4.67979 18.4114C4.7238 18.4882 4.74632 18.5266 4.76668 18.5652C4.95511 18.9219 5.05599 19.3184 5.06286 19.7217C5.06361 19.7653 5.06298 19.8094 5.06148 19.898L5.05264 20.4215C5.03776 21.3029 5.03127 21.7441 5.15463 22.1392C5.26376 22.4888 5.44614 22.8107 5.68996 23.084C5.96555 23.3928 6.34761 23.613 7.11137 24.0531L7.74562 24.4185C8.50723 24.8575 8.88791 25.0766 9.29224 25.1604C9.64996 25.2344 10.0193 25.2316 10.3757 25.1515C10.7786 25.0611 11.156 24.8351 11.91 24.3835L12.3645 24.1114C12.4365 24.0683 12.473 24.0467 12.5089 24.0267C12.8665 23.8279 13.2651 23.7174 13.674 23.7043C13.7151 23.7031 13.7571 23.7031 13.8409 23.7031C13.9249 23.7031 13.9668 23.7031 14.008 23.7043C14.4177 23.7176 14.8189 23.8284 15.1769 24.0279C15.2084 24.0455 15.24 24.0646 15.2954 24.0978L15.7787 24.3879C16.5357 24.8424 16.9141 25.0693 17.3186 25.1601C17.6764 25.2404 18.0471 25.2436 18.4062 25.1687C18.8114 25.0841 19.1932 24.8625 19.9549 24.4204L20.5908 24.0513C21.3464 23.6127 21.7253 23.3928 21.9986 23.0851C22.2412 22.8123 22.4227 22.491 22.5311 22.1423C22.6529 21.7511 22.6456 21.3151 22.6309 20.4494L22.6214 19.8848C22.62 19.8022 22.6199 19.7611 22.6205 19.7205C22.6266 19.3096 22.7309 18.9059 22.925 18.5438C22.9443 18.508 22.9651 18.4719 23.0062 18.4006C23.0476 18.3292 23.069 18.2935 23.0905 18.2589C23.3072 17.9096 23.6045 17.6173 23.9576 17.4068C23.9921 17.3862 24.0276 17.3666 24.0982 17.3275L24.1006 17.3264L24.565 17.0689C25.3379 16.6407 25.7249 16.4261 26.006 16.1211C26.2547 15.8513 26.4423 15.5317 26.557 15.1831C26.6859 14.7915 26.6848 14.3522 26.6829 13.479L26.6812 12.7414C26.6792 11.8637 26.6782 11.4252 26.5483 11.0339C26.4333 10.6877 26.2457 10.3695 25.9984 10.1013C25.7193 9.79848 25.3362 9.58542 24.5708 9.15958L24.5685 9.15848Z" stroke="#7C99A2" stroke-width="2" stroke-linecap="round" stroke-linejoin="round"/>
<path d="M8.70361 13.1115C8.70361 15.9495 11.0043 18.2502 13.8422 18.2502C16.6803 18.2502 18.9809 15.9495 18.9809 13.1115C18.9809 10.2734 16.6803 7.97278 13.8422 7.97278C11.0043 7.97278 8.70361 10.2734 8.70361 13.1115Z" stroke="#7C99A2" stroke-width="2" stroke-linecap="round" stroke-linejoin="round"/>
</svg>
